<?xml version="1.0" encoding="utf-8"?>
<!-- Generator: Adobe Illustrator 26.3.1, SVG Export Plug-In . SVG Version: 6.00 Build 0)  -->
<svg version="1.1" id="Layer_1" xmlns="http://www.w3.org/2000/svg" xmlns:xlink="http://www.w3.org/1999/xlink" x="0px" y="0px"
	 viewBox="0 0 112.7 84.5" enableBackground="new 0 0 112.7 84.5" xml:space="preserve">
<g>
	<path fill="none" d="M10.9,75.2h1.4c-0.6-1.7-0.1-2.5,1.7-2.7V12.1h86.2v60.7c0.8,0,1.4,0,1.5,0c0,0.8,0,1.6,0,2.4h1.5V9.1H10.9
		V75.2z"/>
	<path d="M62.9,55.2c1.7,0,2.6-0.8,3-1.2l0.2-0.2l-0.2-0.2c-1.1-1.3-2.1-2.4-3.3-3.8c-0.9-0.9-1.8-2-2.9-3.2l-0.3-0.4L59,46.6
		c-0.4,0.7-0.7,1.7-0.7,2.9C58.4,52.8,60.3,55.2,62.9,55.2z M59.4,46.8c2.7,3,4.4,4.9,6.2,7c-0.5,0.5-1.3,1.1-2.7,1.1
		c-2.2,0-4.2-2.1-4.2-5.4C58.7,48.3,59,47.4,59.4,46.8z"/>
	<path d="M63.1,44.3c0.9-1,1.3-2.5,1.3-4.2c0-2.1-1.1-3.8-2.4-3.8c-1.1,0-2,1.3-2,3C60,40.9,61,42.4,63.1,44.3z M62,36.6
		c1.1,0,2,1.5,2,3.4c0,1.5-0.4,2.8-1,3.7c-1.9-1.8-2.7-3.1-2.7-4.5C60.4,37.8,61.1,36.6,62,36.6z"/>
	<path d="M5.9,4.5V80h101.8V4.5H5.9z M103.1,75.2h-1.5l0,0c-14.9,0-36.9,0-51.9,0c0-0.7,0-1.5,0-2.3c1.2-0.3,2.5-0.5,3.7-0.8
		c1.8-0.5,2.4-1.5,1.8-3.3c-1.6-4.8-3.3-9.6-5.1-14.3c-0.1-0.4-0.9-0.8-1.4-0.8c-5.8-0.1-11.6-0.1-17.4,0c-0.5,0-1.3,0.6-1.5,1.1
		c-1.5,4.1-2.9,8.3-4.2,12.5c-1,3.3-0.1,4.6,3.3,5.2c1,0.2,1.9,0.3,3,0.4c0,0.8,0,1.5,0,2.3c-6.6,0-13.2,0-19.7,0l0,0h-1.3V9.1h92.2
		V75.2z"/>
	<path d="M40.1,26.6c-2.8,7.6-5.6,15.2-8.4,23c5.7,0,11.1,0,16.8,0c-2.7-7.8-5.3-15.4-8-23C40.4,26.5,40.3,26.6,40.1,26.6z"/>
	<g>
		<path d="M13.9,12.1v60.4l0,0c3-0.3,5.2-1.9,6.3-4.7c2.8-6.9,5.6-13.7,8.3-20.6c4-10,8-20,11.8-30c0.7-1.8,1.7-2.7,3.8-2.8
			c0.4,1.1,0.8,2.3,1.3,3.4c3.5,9.8,7.1,19.6,10.6,29.4c-1.4,1.3-2.2,2.6-2.2,4.6c0,3.3,2.2,6.8,6.4,7c0.7,2,1.5,4.1,2.2,6.1
			c0.5,1.2,1,2.5,1.6,3.6c2.1,3.9,8.4,5.6,12.2,3c1-0.7,1.5-2.2,1.9-3.5s0.2-2.8,0.2-4.1c0-12.3,0-24.7,0-37c0-1.3-0.1-2.7-0.2-4
			c-0.2-2.7-1.2-3.8-3.8-4.4c-0.8-0.2-1.5-0.2-2.3-0.3c-2-0.2-2-0.2-1.8-2.5c8,0,16,0,24.1,0c0,0.7,0,1.3,0,2.2
			c-1.4,0.2-3,0.5-4.5,0.7c-2,0.4-3.2,1.6-3.4,3.7c-0.1,1.1-0.3,2.3-0.3,3.4c0,13.1,0,26.2,0,39.4c0,5.9,0.8,6.8,6.5,7.5
			c0.4,0.1,4.9,0,7.4,0.1V12.1H13.9z M76.2,42.5V44l-0.9,0.1c-1.1,0.2-2,0.9-3.1,2.5c-0.9,1.3-1.6,2.5-2.7,4.3
			c3.1,3.5,4.2,5.2,5.4,7.4l-0.2,0.4c-3.2,0-5.4-0.8-6.2-1.7c-0.3-0.3-0.9-1-1.9-2.1c-1.6,2.1-3.4,3.5-5.9,3.5
			c-4.2,0-6.4-3.5-6.4-6.7c0-2.7,1.3-3.9,4.1-6c-1.1-1.2-2-2.8-2-4.8c0-3.6,2.6-6.4,6-6.4s5.5,2.4,5.5,5.8c0,1.1-0.4,2.1-1.4,2.9
			c-0.6,0.6-1.2,1.1-2.4,2c1.3,1.3,2.8,2.8,4.3,4.5c0.9-1.7,1.5-2.6,1.9-3.6c0.5-1.2,0.4-1.7-0.7-2L68.8,44v-1.5H76.2z"/>
	</g>
</g>
</svg>
