<?xml version="1.0" encoding="utf-8"?>
<!-- Generator: Adobe Illustrator 26.5.0, SVG Export Plug-In . SVG Version: 6.00 Build 0)  -->
<svg version="1.1" id="Layer_1" xmlns="http://www.w3.org/2000/svg" xmlns:xlink="http://www.w3.org/1999/xlink" x="0px" y="0px"
	 viewBox="0 0 112.7 84.5" enable-background="new 0 0 112.7 84.5" xml:space="preserve">
<path fill="none" d="M10.6,75.5H12c-0.6-1.7-0.1-2.5,1.7-2.7V12.4h86.2v60.7c0.8,0,1.4,0,1.5,0c0,0.8,0,1.6,0,2.4h1.5V9.4H10.6V75.5
	z"/>
<path fill="#81817B" d="M62.6,55.5c1.7,0,2.6-0.8,3-1.2l0.2-0.2l-0.2-0.2c-1.1-1.3-2.1-2.4-3.3-3.8c-0.9-0.9-1.8-2-2.9-3.2l-0.3-0.4
	l-0.4,0.4c-0.4,0.7-0.7,1.7-0.7,2.9C58.1,53.1,60,55.5,62.6,55.5z M59.1,47.1c2.7,3,4.4,4.9,6.2,7c-0.5,0.5-1.3,1.1-2.7,1.1
	c-2.2,0-4.2-2.1-4.2-5.4C58.4,48.6,58.7,47.7,59.1,47.1z"/>
<path fill="#81817B" d="M62.8,44.6c0.9-1,1.3-2.5,1.3-4.2c0-2.1-1.1-3.8-2.4-3.8c-1.1,0-2,1.3-2,3C59.7,41.2,60.7,42.7,62.8,44.6z
	 M61.7,36.9c1.1,0,2,1.5,2,3.4c0,1.5-0.4,2.8-1,3.7c-1.9-1.8-2.7-3.1-2.7-4.5C60.1,38.1,60.8,36.9,61.7,36.9z"/>
<path fill="#81817B" d="M5.6,4.8v75.5h101.8V4.8H5.6z M102.8,75.5h-1.5l0,0c-14.9,0-36.9,0-51.9,0c0-0.7,0-1.5,0-2.3
	c1.2-0.3,2.5-0.5,3.7-0.8c1.8-0.5,2.4-1.5,1.8-3.3c-1.6-4.8-3.3-9.6-5.1-14.3c-0.1-0.4-0.9-0.8-1.4-0.8c-5.8-0.1-11.6-0.1-17.4,0
	c-0.5,0-1.3,0.6-1.5,1.1c-1.5,4.1-2.9,8.3-4.2,12.5c-1,3.3-0.1,4.6,3.3,5.2c1,0.2,1.9,0.3,3,0.4c0,0.8,0,1.5,0,2.3
	c-6.6,0-13.2,0-19.7,0l0,0h-1.3V9.4h92.2C102.8,9.4,102.8,75.5,102.8,75.5z"/>
<path fill="#81817B" d="M39.8,26.9c-2.8,7.6-5.6,15.2-8.4,23c5.7,0,11.1,0,16.8,0c-2.7-7.8-5.3-15.4-8-23
	C40.1,26.8,40,26.9,39.8,26.9z"/>
<path fill="#81817B" d="M13.6,12.4v60.4l0,0c3-0.3,5.2-1.9,6.3-4.7c2.8-6.9,5.6-13.7,8.3-20.6c4-10,8-20,11.8-30
	c0.7-1.8,1.7-2.7,3.8-2.8c0.4,1.1,0.8,2.3,1.3,3.4c3.5,9.8,7.1,19.6,10.6,29.4c-1.4,1.3-2.2,2.6-2.2,4.6c0,3.3,2.2,6.8,6.4,7
	c0.7,2,1.5,4.1,2.2,6.1c0.5,1.2,1,2.5,1.6,3.6c2.1,3.9,8.4,5.6,12.2,3c1-0.7,1.5-2.2,1.9-3.5s0.2-2.8,0.2-4.1c0-12.3,0-24.7,0-37
	c0-1.3-0.1-2.7-0.2-4c-0.2-2.7-1.2-3.8-3.8-4.4c-0.8-0.2-1.5-0.2-2.3-0.3c-2-0.2-2-0.2-1.8-2.5c8,0,16,0,24.1,0c0,0.7,0,1.3,0,2.2
	c-1.4,0.2-3,0.5-4.5,0.7c-2,0.4-3.2,1.6-3.4,3.7c-0.1,1.1-0.3,2.3-0.3,3.4c0,13.1,0,26.2,0,39.4c0,5.9,0.8,6.8,6.5,7.5
	c0.4,0.1,4.9,0,7.4,0.1V12.4H13.6z M75.9,42.8v1.5L75,44.4c-1.1,0.2-2,0.9-3.1,2.5c-0.9,1.3-1.6,2.5-2.7,4.3
	c3.1,3.5,4.2,5.2,5.4,7.4L74.4,59c-3.2,0-5.4-0.8-6.2-1.7c-0.3-0.3-0.9-1-1.9-2.1c-1.6,2.1-3.4,3.5-5.9,3.5c-4.2,0-6.4-3.5-6.4-6.7
	c0-2.7,1.3-3.9,4.1-6c-1.1-1.2-2-2.8-2-4.8c0-3.6,2.6-6.4,6-6.4s5.5,2.4,5.5,5.8c0,1.1-0.4,2.1-1.4,2.9c-0.6,0.6-1.2,1.1-2.4,2
	c1.3,1.3,2.8,2.8,4.3,4.5c0.9-1.7,1.5-2.6,1.9-3.6c0.5-1.2,0.4-1.7-0.7-2l-0.8-0.1v-1.5H75.9z"/>
</svg>
