<?xml version="1.0" encoding="utf-8"?>
<!-- Generator: Adobe Illustrator 26.3.1, SVG Export Plug-In . SVG Version: 6.00 Build 0)  -->
<svg version="1.1" id="Layer_1" xmlns="http://www.w3.org/2000/svg" xmlns:xlink="http://www.w3.org/1999/xlink" x="0px" y="0px"
	 viewBox="0 0 321.9 84.5" enableBackground="new 0 0 321.9 84.5" xml:space="preserve" fill="#fff">
<g>
	<path d="M134.2,40v-1.5c3.3-0.4,3.7-0.8,3.1-2.9s-1.7-4.8-2.9-8h-11c-0.8,2.3-1.6,4.5-2.3,6.7c-1.1,3.3-0.7,3.8,3.3,4.1V40h-11.3
		v-1.5c3.3-0.5,4-0.8,5.8-5.4L129.6,6l1.6-0.5c3.2,8.9,6.7,18.8,10,27.8c1.6,4.5,2.3,4.9,5.7,5.2V40H134.2z M129.1,12.3H129
		c-1.7,4.4-3.3,9-4.9,13.2h9.5L129.1,12.3z"/>
	<path d="M160.5,14.8c4.5,0,8.3,0.9,10.9,3.4c1.9,1.8,3.2,4.7,3.2,8.3c0,9.3-7.2,13.5-15.7,13.5h-10.4v-1.5c3.5-0.3,3.8-0.6,3.8-4.4
		V20.8c0-4-0.3-4.2-3.5-4.5v-1.5H160.5z M156.6,33.9c0,3.5,0.8,4.3,3.8,4.3c6.2,0,9.4-4.3,9.4-10.9c0-7.9-4.1-10.8-9.8-10.8
		c-1.5,0-2.5,0.3-2.9,0.7c-0.3,0.3-0.5,1-0.5,2.5V33.9z"/>
	<path d="M200.9,32.8c-0.4,1.9-1.4,5.4-2.1,6.9c-1,0.3-4.9,1.1-7.5,1.1c-9.4,0-13.9-6.3-13.9-13.1c0-8.2,6.4-13.6,14.7-13.6
		c3.3,0,6,0.8,7.3,1.1c0.3,2.2,0.4,4.2,0.7,6.7l-1.5,0.3c-1-4.7-3.6-6.4-7.4-6.4c-5.2,0-9,4.7-9,11.2c0,7.1,4.1,11.9,9.2,11.9
		c3.7,0,6.1-2.2,8-6.5L200.9,32.8z"/>
	<path d="M228.5,27.1c0,9-6.6,13.6-12.9,13.6c-8.3,0-13-6.4-13-12.8c0-9.6,7.3-13.8,13.1-13.8C223.2,14.1,228.5,19.7,228.5,27.1z
		 M207.5,26.7c0,7.3,3.6,12.4,8.7,12.4c3.9,0,7.5-3,7.5-10.8c0-6.2-3.1-12.4-8.5-12.4C211.2,15.8,207.5,19.5,207.5,26.7z"/>
	<path d="M254.8,32.8c-0.4,1.9-1.4,5.4-2.1,6.9c-1,0.3-4.9,1.1-7.5,1.1c-9.4,0-13.9-6.3-13.9-13.1c0-8.2,6.4-13.6,14.7-13.6
		c3.3,0,6,0.8,7.3,1.1c0.3,2.2,0.4,4.2,0.7,6.7l-1.5,0.3c-1-4.7-3.6-6.4-7.4-6.4c-5.2,0-9,4.7-9,11.2c0,7.1,4.1,11.9,9.2,11.9
		c3.7,0,6.1-2.2,8-6.5L254.8,32.8z"/>
	<path d="M274.8,40c-1.5-1.7-6.4-8-8.6-11c-0.9-1.3-1.5-1.1-2.3-0.9v6.1c0,3.8,0.3,4.1,3.7,4.4V40h-11.2v-1.5
		c3.1-0.3,3.4-0.5,3.4-4.4V20.6c0-3.9-0.3-4.1-3.6-4.4v-1.5h11.2v1.5c-3.1,0.3-3.5,0.5-3.5,4.4v6c0.8-0.2,1.7-0.6,2.6-1.4
		c2.4-2.2,5.1-5.4,6.2-6.7c0.9-1.2,1-1.9-0.5-2.1l-1.2-0.2v-1.5h10.2v1.5c-2.5,0.3-3.8,0.7-6,2.7c-1.5,1.3-4,3.9-6.5,6.4
		c3,4.2,6.4,8.4,8.3,10.4c1.9,2.1,3,2.6,4.9,2.8V40H274.8z"/>
	<path d="M142.2,58.7c-1.6,0.3-2.9,1.3-4.5,3.5c-1.3,1.9-2.3,3.6-3.9,6.1c4.4,5,6.1,7.5,7.7,10.6l-0.3,0.6c-4.5,0-7.8-1.1-8.8-2.4
		c-0.5-0.4-1.3-1.4-2.7-3c-2.3,2.9-4.8,5-8.4,5c-6,0-9.2-5-9.2-9.5c0-3.9,1.9-5.6,5.8-8.6c-1.6-1.8-2.8-4-2.8-6.9
		c0-5.2,3.8-9.1,8.5-9.1s7.9,3.4,7.9,8.2c0,1.5-0.6,2.9-2,4.2c-0.9,0.8-1.8,1.5-3.4,2.8c1.9,1.9,4,4,6.2,6.4
		c1.3-2.4,2.1-3.8,2.6-5.1c0.7-1.7,0.6-2.4-1-2.8l-1.1-0.3v-2.2h10.7v2.2L142.2,58.7z M128.3,72.5c-2.6-3.1-5.1-5.7-8.9-10
		c-0.6,1-0.9,2.2-0.9,3.8c0,4.7,2.8,7.7,6,7.7C126.3,74.1,127.6,73.3,128.3,72.5z M120.2,51.8c0,2.4,1.4,4.5,4.4,7.2
		c1.3-1.4,1.9-3.6,1.9-6.1c0-3-1.5-5.4-3.4-5.4C121.5,47.5,120.2,49.3,120.2,51.8z"/>
	<path d="M152.3,78.4V77c4.2-0.3,4.7-0.6,4.7-5V51.2c0-4.4-0.4-4.7-4.7-5v-1.5H166v1.5c-4.3,0.3-4.7,0.6-4.7,5v20.7
		c0,4.5,0.4,4.7,4.7,5v1.5H152.3z"/>
	<path d="M194.9,54.6c-2.9,0.4-3.4,0.9-5,4.4c-1.5,3.2-4.9,11.8-7.9,19.9h-1.6c-2.7-7.1-6.3-16.1-8.1-20.8c-1.1-2.9-1.9-3.2-4.2-3.5
		v-1.5h11v1.5l-1.5,0.3c-1.4,0.3-1.6,0.7-1,2.3c0.9,2.4,3.6,9.5,6,15.6c1.9-4.7,4.7-12.4,5.6-15.3c0.6-2,0.4-2.3-1.5-2.7l-1.1-0.2
		v-1.5h9.4V54.6z"/>
	<path d="M197,78.4v-1.5c3.3-0.3,3.6-0.5,3.6-4.5V59.1c0-4-0.3-4.2-3.6-4.5v-1.5h11.5v1.5c-3.4,0.3-3.7,0.5-3.7,4.5v13.4
		c0,3.9,0.3,4.2,3.7,4.5v1.5H197z"/>
	<path d="M224.5,60.1c-1-3.3-2.5-5.9-5.6-5.9c-2.5,0-3.9,1.9-3.9,4c0,2.8,2,3.9,4.6,5l0.9,0.4c3.5,1.5,6.6,3.3,6.6,7.7
		c0,4.6-3.8,7.8-9,7.8c-3.3,0-5.8-1.3-6.7-1.9c-0.3-0.9-0.8-4.1-1.2-6.8l1.5-0.3c0.9,3,3.2,7.2,7.2,7.2c2.5,0,4.3-1.9,4.3-4.4
		c0-3-2.1-4.2-4.2-5.1l-1.1-0.5c-2.9-1.3-6.5-3.2-6.5-7.3c0-4.5,3.2-7.6,8.6-7.6c2.3,0,4.2,0.7,5.2,1c0.4,1.6,0.6,3.6,0.9,6.4
		L224.5,60.1z"/>
	<path d="M254.6,65.5c0,9-6.6,13.6-12.9,13.6c-8.3,0-13-6.4-13-12.8c0-9.6,7.3-13.8,13.1-13.8C249.4,52.4,254.6,58.1,254.6,65.5z
		 M233.7,65c0,7.3,3.6,12.4,8.7,12.4c3.9,0,7.5-3,7.5-10.8c0-6.2-3.1-12.4-8.5-12.4C237.3,54.2,233.7,57.8,233.7,65z"/>
	<path d="M283,54.6c-2.4,0.2-3.4,0.7-3.6,2.3c-0.2,1.5-0.3,3.2-0.3,7v14.7h-1.7l-15.7-19.8h-0.1v8.6c0,3.8,0.2,5.8,0.3,7
		c0.2,1.7,1.1,2.2,4,2.4v1.5H256v-1.5c2.4-0.2,3.3-0.7,3.5-2.3c0.2-1.3,0.3-3.3,0.3-7.1v-7.3c0-4.5-0.9-5.3-4.4-5.6v-1.5h7L277.1,71
		h0.1v-7c0-3.8-0.1-5.6-0.3-6.9c-0.2-1.8-1-2.2-4-2.4v-1.5H283V54.6z"/>
	<path d="M289.1,69.1c2,0,3.3,0.8,3.3,2.8c0,1.8-1.3,2.8-2.9,3c-0.2,0-0.5,0-0.7,0l-1.1-0.3v1.8c0,1.4,0.1,1.4,1.5,1.6v0.5H285v-0.5
		c1.2-0.1,1.3-0.2,1.3-1.5v-5.1c0-1.5-0.1-1.6-1.2-1.7v-0.5H289.1z M287.8,73.9c0.2,0.1,0.6,0.2,1.1,0.2c0.7,0,1.9-0.3,1.9-2.3
		c0-1.6-1-2.2-2.1-2.2c-0.9,0-0.9,0.2-0.9,0.8V73.9z"/>
	<path d="M300.3,75.8c-0.1,0.6-0.4,2.2-0.5,2.6h-7v-0.5c1.3-0.1,1.4-0.2,1.4-1.7v-5c0-1.5-0.1-1.5-1.3-1.6v-0.5h4.2v0.5
		c-1.3,0.1-1.4,0.2-1.4,1.6v5.2c0,0.7,0.1,1.1,0.3,1.2c0.3,0.1,0.7,0.2,1.4,0.2c0.9,0,1.3-0.1,1.7-0.5c0.3-0.3,0.4-0.8,0.7-1.5
		L300.3,75.8z"/>
	<path d="M308,75.8c-0.1,0.6-0.4,2.2-0.5,2.6h-7v-0.5c1.3-0.1,1.4-0.2,1.4-1.7v-5c0-1.5-0.1-1.5-1.3-1.6v-0.5h4.2v0.5
		c-1.3,0.1-1.4,0.2-1.4,1.6v5.2c0,0.7,0.1,1.1,0.3,1.2c0.3,0.1,0.7,0.2,1.4,0.2c0.9,0,1.3-0.1,1.7-0.5c0.3-0.3,0.4-0.8,0.7-1.5
		L308,75.8z"/>
	<path d="M316.8,75.7c-0.2,0.7-0.5,2-0.8,2.5c-0.4,0.1-1.8,0.4-2.7,0.4c-3.4,0-5-2.3-5-4.8c0-3,2.3-5,5.3-5c1.2,0,2.2,0.3,2.6,0.4
		c0.1,0.8,0.2,1.6,0.3,2.5l-0.5,0.1c-0.4-1.8-1.3-2.4-2.7-2.4c-1.9,0-3.2,1.7-3.2,4.2c0,2.6,1.5,4.4,3.3,4.4c1.3,0,2.2-0.8,2.9-2.4
		L316.8,75.7z"/>
	<path fill="none" d="M8.9,75.2h1.4c-0.6-1.7-0.1-2.5,1.7-2.7V12.1h86.2v60.7c0.8,0,1.4,0,1.5,0c0,0.8,0,1.6,0,2.4h1.5V9.1H8.9V75.2
		z"/>
	<path d="M60.9,55.2c1.7,0,2.6-0.8,3-1.2l0.2-0.2l-0.2-0.2c-1.1-1.3-2.1-2.4-3.3-3.8c-0.9-0.9-1.8-2-2.9-3.2l-0.3-0.4L57,46.6
		c-0.4,0.7-0.7,1.7-0.7,2.9C56.4,52.8,58.3,55.2,60.9,55.2z M57.4,46.8c2.7,3,4.4,4.9,6.2,7c-0.5,0.5-1.3,1.1-2.7,1.1
		c-2.2,0-4.2-2.1-4.2-5.4C56.7,48.3,57,47.4,57.4,46.8z"/>
	<path d="M61.1,44.3c0.9-1,1.3-2.5,1.3-4.2c0-2.1-1.1-3.8-2.4-3.8c-1.1,0-2,1.3-2,3C58,40.9,59,42.4,61.1,44.3z M60,36.6
		c1.1,0,2,1.5,2,3.4c0,1.5-0.4,2.8-1,3.7c-1.9-1.8-2.7-3.1-2.7-4.5C58.4,37.8,59.1,36.6,60,36.6z"/>
	<path d="M3.9,4.5V80h101.8V4.5H3.9z M101.1,75.2h-1.5c0,0,0,0,0,0c-14.9,0-36.9,0-51.9,0c0-0.7,0-1.5,0-2.3
		c1.2-0.3,2.5-0.5,3.7-0.8c1.8-0.5,2.4-1.5,1.8-3.3c-1.6-4.8-3.3-9.6-5.1-14.3c-0.1-0.4-0.9-0.8-1.4-0.8c-5.8-0.1-11.6-0.1-17.4,0
		c-0.5,0-1.3,0.6-1.5,1.1c-1.5,4.1-2.9,8.3-4.2,12.5c-1,3.3-0.1,4.6,3.3,5.2c1,0.2,1.9,0.3,3,0.4c0,0.8,0,1.5,0,2.3
		c-6.6,0-13.2,0-19.7,0c0,0,0,0,0,0H8.9V9.1h92.2V75.2z"/>
	<path d="M38.1,26.6c-2.8,7.6-5.6,15.2-8.4,23c5.7,0,11.1,0,16.8,0c-2.7-7.8-5.3-15.4-8-23C38.4,26.5,38.3,26.6,38.1,26.6z"/>
	<g>
		<path d="M11.9,12.1v60.4c0,0,0,0,0,0c3-0.3,5.2-1.9,6.3-4.7c2.8-6.9,5.6-13.7,8.3-20.6c4-10,8-20,11.8-30c0.7-1.8,1.7-2.7,3.8-2.8
			c0.4,1.1,0.8,2.3,1.3,3.4c3.5,9.8,7.1,19.6,10.6,29.4c-1.4,1.3-2.2,2.6-2.2,4.6c0,3.3,2.2,6.8,6.4,7c0.7,2,1.5,4.1,2.2,6.1
			c0.5,1.2,1,2.5,1.6,3.6c2.1,3.9,8.4,5.6,12.2,3c1-0.7,1.5-2.2,1.9-3.5c0.4-1.3,0.2-2.8,0.2-4.1c0-12.3,0-24.7,0-37
			c0-1.3-0.1-2.7-0.2-4c-0.2-2.7-1.2-3.8-3.8-4.4c-0.8-0.2-1.5-0.2-2.3-0.3C68,18,68,18,68.2,15.7c8,0,16,0,24.1,0
			c0,0.7,0,1.3,0,2.2c-1.4,0.2-3,0.5-4.5,0.7c-2,0.4-3.2,1.6-3.4,3.7c-0.1,1.1-0.3,2.3-0.3,3.4c0,13.1,0,26.2,0,39.4
			c0,5.9,0.8,6.8,6.5,7.5c0.4,0.1,4.9,0,7.4,0.1V12.1H11.9z M74.2,42.5V44l-0.9,0.1c-1.1,0.2-2,0.9-3.1,2.5
			c-0.9,1.3-1.6,2.5-2.7,4.3c3.1,3.5,4.2,5.2,5.4,7.4l-0.2,0.4c-3.2,0-5.4-0.8-6.2-1.7c-0.3-0.3-0.9-1-1.9-2.1
			c-1.6,2.1-3.4,3.5-5.9,3.5c-4.2,0-6.4-3.5-6.4-6.7c0-2.7,1.3-3.9,4.1-6c-1.1-1.2-2-2.8-2-4.8c0-3.6,2.6-6.4,6-6.4s5.5,2.4,5.5,5.8
			c0,1.1-0.4,2.1-1.4,2.9c-0.6,0.6-1.2,1.1-2.4,2c1.3,1.3,2.8,2.8,4.3,4.5c0.9-1.7,1.5-2.6,1.9-3.6c0.5-1.2,0.4-1.7-0.7-2L66.8,44
			v-1.5H74.2z"/>
	</g>
</g>
</svg>
