<?xml version="1.0" encoding="utf-8"?>
<!-- Generator: Adobe Illustrator 26.3.1, SVG Export Plug-In . SVG Version: 6.00 Build 0)  -->
<svg version="1.1" id="Layer_1" xmlns="http://www.w3.org/2000/svg" xmlns:xlink="http://www.w3.org/1999/xlink" x="0px" y="0px"
	 viewBox="0 0 174 153" enableBackground="new 0 0 174 153" xml:space="preserve" fill="#fff">
	<path d="M50,112c-2.8,0-5-2.2-5-5V92c0-2.8,2.2-5,5-5h5c2.8,0,5,2.2,5,5v15c0,2.8-2.2,5-5,5H50z M130,99.2v7.8c0,5.5-4.5,10-10,10
		h-5c-5.5,0-10-4.5-10-10v-4.7c-6.2,0.4-12.8,0.7-20,0.7c-7.2,0-13.8-0.3-20-0.7v4.7c0,5.5-4.5,10-10,10h-5c-5.5,0-10-4.5-10-10v-7.8
		c-7.6-1.4-13.9-2.9-18.8-4.4c-4.2-1.3-8-3.4-11.2-6.2V127c0,8.3,6.7,15,15,15h120c8.3,0,15-6.7,15-15V88.7
		c-3.2,2.7-6.9,4.8-11.2,6.1C143.9,96.3,137.6,97.8,130,99.2z M165,47v18.1c0,11.1-7.3,20.8-17.9,24c-4.7,1.4-10.4,2.8-17.1,4.1V92
		c0-5.5-4.5-10-10-10h-5c-5.5,0-10,4.5-10,10v4.3C98.8,96.7,92.2,97,85,97c-7.2,0-13.8-0.3-20-0.7V92c0-5.5-4.5-10-10-10h-5
		c-5.5,0-10,4.5-10,10v1.1c-6.7-1.2-12.4-2.7-17.1-4.1C12.3,85.9,5,76.2,5,65.1V47c0-8.3,6.7-15,15-15h20c0-2.8,2.2-5,5-5h5
		c0-11,9-20,20-20h30c11,0,20,9,20,20h5c2.8,0,5,2.2,5,5h20C158.3,32,165,38.7,165,47z M65,27v5h40v-5c0-2.8-2.2-5-5-5H70
		C67.2,22,65,24.2,65,27z M120,112c2.8,0,5-2.2,5-5V92c0-2.8-2.2-5-5-5h-5c-2.8,0-5,2.2-5,5v15c0,2.8,2.2,5,5,5H120z"/>
</svg>
