<?xml version="1.0" encoding="utf-8"?>
<!-- Generator: Adobe Illustrator 26.3.1, SVG Export Plug-In . SVG Version: 6.00 Build 0)  -->
<svg version="1.1" id="Isolation_Mode" xmlns="http://www.w3.org/2000/svg" xmlns:xlink="http://www.w3.org/1999/xlink" x="0px"
	 y="0px" viewBox="0 0 128 128" enable-background="new 0 0 128 128" xml:space="preserve">
<g>
	<path d="M80.1,28.7l-4.6,21.5h-4.8c0.1,0.5,0.2,1.1,0.2,1.6c0,2.1-0.9,4-2.3,5.3h35.3l6.1-28.4H80.1z"/>
	<path d="M23.6,75c1.3,7.8,7.9,13.4,15.8,13.4h12.8c3.5,0,6.3,2.8,6.3,6.3c0,0.2,0.1,0.2,0.1,0.3l1.2,18.9c0.5,3.9,3.8,6.9,7.7,7
		V75.6c-1.6-1.4-3.7-2.2-6-2.2H44.8c-0.5,0-0.9-0.4-1-0.8l-3.5-18.6c-0.1-0.4,0.1-0.8,0.4-1c0.3-0.2,0.7-0.3,1.1-0.1l8.3,4.2h3.7
		c0,0,9.9,0,9.9,0c2.9,0,5.3-2.4,5.3-5.3c0-2.9-2.4-5.3-5.3-5.3H52.8c-0.2,0-0.3,0-0.5-0.1l-19.2-9.7c-0.2-0.1-0.3-0.2-0.5-0.2
		c-1-0.5-1.9-0.7-2.7-0.9c-3.3-0.5-6.6,0.6-8.9,2.9c-1.3,1.3-2.1,2.9-2.6,4.6L23.6,75z"/>
	<path d="M19.7,19.2c0,7.6,6.1,13.7,13.7,13.7c7.6,0,13.7-6.1,13.7-13.7S41,5.5,33.4,5.5C25.8,5.5,19.7,11.6,19.7,19.2z"/>
	<path d="M108.4,120.8V59.2H53.8c-0.8,0-1.5,0.4-2.1,1c-0.5,0.6-0.7,1.4-0.6,2.2c0.2,1.3,1.5,2.3,2.9,2.3h14.4c0.6,0,1,0.5,1,1v55.1
		h9.3v-0.7c0-3.8,3.1-6.8,6.8-6.8h8c3.8,0,6.8,3.1,6.8,6.8v0.7H108.4z"/>
	<path d="M9.8,24.8c-0.2,0-0.4,0-0.7,0.1c-2.3,0.4-3.9,2.5-3.5,4.9l7.6,46.9c1.9,11.8,11.2,20.6,22.8,22v2.1v9.8v2.1h-8.7
		c-2.3,0-4.2,1.9-4.2,4.2v4h29.5v-4c0-2.3-1.9-4.2-4.2-4.2h-8.3v-2.1V101v-2.1h12c2.3,0,4.2-1.9,4.2-4.2c0-2.3-1.9-4.2-4.2-4.2H39.4
		c-8.9,0-16.4-6.4-17.8-15.2L14,28.4C13.7,26.3,11.9,24.8,9.8,24.8z"/>
</g>
</svg>
