<?xml version="1.0" encoding="utf-8"?>
<!-- Generator: Adobe Illustrator 26.3.1, SVG Export Plug-In . SVG Version: 6.00 Build 0)  -->
<svg version="1.1" id="Isolation_Mode" xmlns="http://www.w3.org/2000/svg" xmlns:xlink="http://www.w3.org/1999/xlink" x="0px"
	 y="0px" viewBox="0 0 186 182" enable-background="new 0 0 186 182" xml:space="preserve">
	<path fill="#002d62" d="M94,177c-47.7,0-86.4-38.8-86.4-86.4S46.3,4.1,94,4.1s86.4,38.8,86.4,86.4S141.7,177,94,177z M94,12.1
		c-43.3,0-78.4,35.2-78.4,78.4S50.8,169,94,169s78.4-35.2,78.4-78.4S137.3,12.1,94,12.1z"/>
	<path fill="#002d62" d="M80.7,127.1c-1,0-2-0.4-2.8-1.2c-1.6-1.6-1.6-4.1,0-5.7l29.7-29.7L77.9,60.8c-1.6-1.6-1.6-4.1,0-5.7
		c1.6-1.6,4.1-1.6,5.7,0l32.6,32.6c1.6,1.6,1.6,4.1,0,5.7l-32.6,32.6C82.8,126.7,81.7,127.1,80.7,127.1z"/>
</svg>
