<?xml version="1.0" encoding="utf-8"?>
<!-- Generator: Adobe Illustrator 26.3.1, SVG Export Plug-In . SVG Version: 6.00 Build 0)  -->
<svg version="1.1" id="Layer_1" xmlns="http://www.w3.org/2000/svg" xmlns:xlink="http://www.w3.org/1999/xlink" x="0px" y="0px"
	 viewBox="0 0 775.7 568.2" enable-background="new 0 0 775.7 568.2" xml:space="preserve">
<g>
	<path d="M737.6,343.5c6.6,0,12-5.4,12-12v-6.1c0-6.7-5.4-12-12-12h-4.2H50.2H46c-6.7,0-12,5.4-12,12v6.1c0,6.7,5.4,12,12,12h4.2
		v150.7H46c-6.6,0-12,5.4-12,12v6.1c0,6.7,5.4,12,12,12h4.2h683.2h4.2c6.7,0,12-5.4,12-12v-6.1c0-6.7-5.4-12-12-12h-4.2V343.5H737.6
		z"/>
	<path d="M179.3,209.5c20.8,0,37.6-16.8,37.6-37.7c0-10.5-4.3-20-11.3-26.9c-6.8-6.7-16.1-10.8-26.3-10.8
		c-17.7,0-32.5,12.2-36.5,28.7c-0.7,2.9-1.1,5.9-1.1,8.9C141.6,192.6,158.5,209.5,179.3,209.5z"/>
	<path d="M105.2,292.3h148.1c4.4,0,8-3.6,8-8v-27.6c0-21.9-17.8-39.7-39.7-39.7H137c-21.9,0-39.7,17.8-39.7,39.7v27.6
		C97.3,288.7,100.8,292.3,105.2,292.3z"/>
	<path d="M354.2,171.8c0,20.8,16.8,37.7,37.6,37.7c20.8,0,37.6-16.8,37.6-37.7c0-10.5-4.3-20-11.3-26.9
		c-6.8-6.7-16.1-10.8-26.3-10.8c-17.7,0-32.5,12.2-36.5,28.7C354.6,165.8,354.2,168.8,354.2,171.8z"/>
	<path d="M434.1,217h-84.6c-21.9,0-39.7,17.8-39.7,39.7v27.6c0,4.4,3.6,8,8,8h148.1c4.4,0,8-3.6,8-8v-27.6
		C473.8,234.7,456,217,434.1,217z"/>
	<path d="M566.7,171.8c0,20.8,16.8,37.7,37.6,37.7c20.8,0,37.6-16.8,37.6-37.7c0-10.5-4.3-20-11.3-26.9
		c-6.8-6.7-16.1-10.8-26.3-10.8c-17.7,0-32.5,12.2-36.5,28.7C567.1,165.8,566.7,168.8,566.7,171.8z"/>
	<path d="M522.4,256.7v27.6c0,4.4,3.6,8,8,8h148.1c4.4,0,8-3.6,8-8v-27.6c0-21.9-17.8-39.7-39.7-39.7h-84.6
		C540.1,217,522.4,234.7,522.4,256.7z"/>
	<path d="M285.6,108.9c20.8,0,37.6-16.8,37.6-37.7c0-10.5-4.3-20-11.3-26.9c-6.8-6.7-16.1-10.8-26.3-10.8
		c-17.7,0-32.5,12.2-36.5,28.7c-0.7,2.9-1.1,5.9-1.1,8.9C247.9,92,264.8,108.9,285.6,108.9z"/>
	<path d="M227.9,171.8c0,12.8-5.1,25.1-14,34.1h7.7c22.7,0,42,15,48.4,35.7h31.1c6.4-20.7,25.7-35.7,48.4-35.7h7.7
		c-8.9-9-14-21.3-14-34.1c0-3.8,0.5-7.7,1.4-11.5c2.6-10.6,8.5-19.6,16.4-26.1c-7.1-10.8-19.3-17.9-33.2-17.9h-84.6
		c-13.9,0-26.1,7.1-33.2,17.9c1.1,0.9,2.2,1.9,3.2,2.9C222.7,146.3,227.9,158.7,227.9,171.8z"/>
	<path d="M498.1,108.9c20.8,0,37.6-16.8,37.6-37.7c0-10.5-4.3-20-11.3-26.9c-6.8-6.7-16.1-10.8-26.3-10.8
		c-17.7,0-32.5,12.2-36.5,28.7c-0.7,2.9-1.1,5.9-1.1,8.9C460.5,92,477.3,108.9,498.1,108.9z"/>
	<path d="M440.5,171.8c0,12.8-5.1,25.1-14,34.1h7.7c22.7,0,42,15,48.4,35.7h31.1c6.4-20.7,25.7-35.7,48.4-35.7h7.7
		c-8.9-9-14-21.3-14-34.1c0-3.8,0.5-7.7,1.4-11.5c2.6-10.6,8.5-19.6,16.4-26.1c-7.1-10.8-19.3-17.9-33.2-17.9h-84.6
		c-13.9,0-26.1,7.1-33.2,17.9c1.1,0.9,2.2,1.9,3.2,2.9C435.3,146.3,440.5,158.7,440.5,171.8z"/>
</g>
</svg>
