<?xml version="1.0" encoding="utf-8"?>
<!-- Generator: Adobe Illustrator 26.3.1, SVG Export Plug-In . SVG Version: 6.00 Build 0)  -->
<svg version="1.1" id="Layer_1" xmlns="http://www.w3.org/2000/svg" xmlns:xlink="http://www.w3.org/1999/xlink" x="0px" y="0px"
	 viewBox="0 0 94 64" enableBackground="new 0 0 94 64" xml:space="preserve">
<path d="M84.6,52.9L66,32.8c-0.5-0.6-0.5-1.4,0-2l18.6-19.5c0.9-0.9,2.5-0.3,2.5,1v39.5C87.1,53.2,85.5,53.8,84.6,52.9z M9,11.3
	l18.6,19.5c0.5,0.6,0.5,1.4,0,2L9,52.9c-0.9,1-2.5,0.3-2.5-1V12.3C6.5,11,8.1,10.4,9,11.3z M30.7,36.3c0.6-0.6,1.5-0.6,2.1,0
	l4.6,4.8c2.7,2.2,6,3.4,9.3,3.4c3.4,0,6.8-1.2,9.7-3.6l4.4-4.6c0.6-0.6,1.5-0.6,2.1,0l18.2,19.6c0.9,0.9,0.2,2.4-1.1,2.4H13.6
	c-1.3,0-1.9-1.5-1.1-2.4L30.7,36.3z M81.3,4.6c1.3,0,1.9,1.5,1,2.4L53.2,37.5c-3.7,3.1-9.1,3.1-12.6,0.2L11.3,7
	c-0.9-0.9-0.2-2.4,1-2.4H81.3z"/>
</svg>
