<?xml version="1.0" encoding="utf-8"?>
<!-- Generator: Adobe Illustrator 26.3.1, SVG Export Plug-In . SVG Version: 6.00 Build 0)  -->
<svg version="1.1" id="Isolation_Mode" xmlns="http://www.w3.org/2000/svg" xmlns:xlink="http://www.w3.org/1999/xlink" x="0px"
	 y="0px" viewBox="0 0 297.4 334.6" enable-background="new 0 0 297.4 334.6" xml:space="preserve" fill="#fff">
<g>
	<ellipse transform="matrix(0.9571 -0.2898 0.2898 0.9571 -7.5346 45.1493)" cx="148.7" cy="48" rx="28.7" ry="28.7"/>
	<path d="M175.7,84.6h-26.9h-26.9c-28.9,0-29.7,17-28.9,37.3l3.1,56.9l16.7,17.2l9.6,103.7c0.6,5.4,4.4,9.4,8.8,9.4h17.6h17.6
		c4.4,0,8.2-4,8.8-9.4l9.6-103.7l16.7-17.2l3.1-56.9C205.4,101.6,201.9,84.6,175.7,84.6z"/>
	<g>
		<path d="M76.9,122.6l0-0.1c-0.4-10.6-1.1-26,7.3-37.9c-3.4-2.1-7.4-3.2-11.6-3.2c-12.4,0-22.5,10.1-22.5,22.5
			c0,12.4,10.1,22.5,22.5,22.5c1.5,0,3.1-0.2,4.5-0.5l-0.2-3.2L76.9,122.6z"/>
	</g>
	<g>
		<path d="M84.6,190l-4.2-4.3l-0.3-6l-2.6-47.1h-6.2H50.2c-22.7,0-23.3,13.3-22.6,29.2l2.5,44.7L43.1,220l7.5,81.3
			c0.5,4.2,3.4,7.4,6.9,7.4h13.8h13.8c3.5,0,6.4-3.1,6.9-7.4l7.2-78l-1.9-20.2L84.6,190z"/>
	</g>
	<g>
		<path d="M220.5,122.5l0,0.1l0,0.1l-0.1,2.5c2.2,0.7,4.6,1.1,7.1,1.1c12.4,0,22.5-10.1,22.5-22.5c0-12.4-10.1-22.5-22.5-22.5
			c-5.3,0-10.3,1.9-14.1,5C220.5,97.5,221,111.3,220.5,122.5z"/>
	</g>
	<g>
		<path d="M247.3,132.6h-21.1H220l-2.6,47.1l-0.3,6l-4.2,4.3l-12.8,13.2l-1.9,20.3l7.2,77.9c0.5,4.2,3.4,7.4,6.9,7.4h13.8h13.8
			c3.5,0,6.4-3.1,6.9-7.4l7.5-81.3l13.1-13.5l2.5-44.7C270.6,145.9,267.9,132.6,247.3,132.6z"/>
	</g>
</g>
</svg>
