<?xml version="1.0" encoding="utf-8"?>
<!-- Generator: Adobe Illustrator 26.3.1, SVG Export Plug-In . SVG Version: 6.00 Build 0)  -->
<svg version="1.1" id="Isolation_Mode" xmlns="http://www.w3.org/2000/svg" xlink="http://www.w3.org/1999/xlink" x="0px"
	 y="0px" viewBox="0 0 85 77" enableBackground="new 0 0 85 77" space="preserve" fill="#002d62" >
<g>
	<path d="M34.6,23.3h-5.5c-1.4,0-2.6,1.1-2.6,2.6v14.9c0,1.4,1.1,2.6,2.6,2.6h5.5c1.4,0,2.6-1.1,2.6-2.6V25.9
		C37.2,24.4,36,23.3,34.6,23.3z"/>
	<path d="M39.2,6C20.8,6,5.8,20.9,5.8,39.4c0,18.4,14.9,33.4,33.4,33.4s33.4-14.9,33.4-33.4C72.6,20.9,57.6,6,39.2,6z M47,59.4
		c0,0.1-0.1,0.2-0.2,0.2H31.6c-0.1,0-0.2-0.1-0.2-0.2v-2.8c0-0.1,0.1-0.2,0.2-0.2h15.2c0.1,0,0.2,0.1,0.2,0.2V59.4z M47,53.7
		c0,0.1-0.1,0.2-0.2,0.2H31.6c-0.1,0-0.2-0.1-0.2-0.2v-2.8c0-0.1,0.1-0.2,0.2-0.2h15.2c0.1,0,0.2,0.1,0.2,0.2V53.7z M55.9,49
		c0,1.6-1.3,2.9-2.9,2.9h-2.9v-4.2c0-0.2-0.2-0.4-0.4-0.4H28.7c-0.2,0-0.4,0.2-0.4,0.4v4.2h-2.9c-1.6,0-2.9-1.3-2.9-2.9V22.1
		c0-1.6,1.3-2.9,2.9-2.9H53c1.6,0,2.9,1.3,2.9,2.9V49z"/>
</g>
</svg>
