<?xml version="1.0" encoding="utf-8"?>
<!-- Generator: Adobe Illustrator 26.3.1, SVG Export Plug-In . SVG Version: 6.00 Build 0)  -->
<svg version="1.1" id="_x2014_ÎÓÈ_x5F_1" xmlns="http://www.w3.org/2000/svg" xmlns:xlink="http://www.w3.org/1999/xlink"
	 x="0px" y="0px" viewBox="0 0 77 77" enableBackground="new 0 0 77 77" xml:space="preserve" fill="#fff">
<g>
	<path d="M37.7,5.6C19.7,5.6,5.2,20.1,5.2,38.1c0,17.9,14.6,32.5,32.5,32.5c17.9,0,32.5-14.6,32.5-32.5C70.2,20.1,55.6,5.6,37.7,5.6
		z M44.4,51.2c-4.7,6.2-11.3,7.5-14.1,6.1c-3-1.4-1.2-6.4,0-9.7c0.8-2.2,4.3-10.9,4.6-11.5c0.8-1.9-0.5-2.9-4,1.1
		c-0.3,0.3-1.7,2-2,2.2c-1,0.5-1.2-1-1.1-1.6c0.4-2,6.3-9,13.5-8.4c5.9,0.5,2.4,8.2-0.3,14.8c-0.9,2.2-1.7,4.4-2.6,6.5
		c-0.2,0.4-0.4,0.9-0.3,1.4c0.1,0.4,0.4,0.6,0.8,0.6c1.4-0.2,3.8-3.1,4.6-4.1c0.3-0.3,0.6-0.8,1-0.9c0.4-0.1,0.7,0.2,0.8,0.5
		C45.7,49.3,45.1,50.4,44.4,51.2z M45.9,26.3c-3.1,2.6-7.5,0.4-7.3-3.5c0.1-1.8,1.4-3.5,3-4.1C46.5,16.7,49.9,22.9,45.9,26.3z"/>
</g>
</svg>
