<?xml version="1.0" encoding="utf-8"?>
<!-- Generator: Adobe Illustrator 26.3.1, SVG Export Plug-In . SVG Version: 6.00 Build 0)  -->
<svg version="1.1" id="_x2014_ÎÓÈ_x5F_1" xmlns="http://www.w3.org/2000/svg" xmlns:xlink="http://www.w3.org/1999/xlink"
	 x="0px" y="0px" viewBox="0 0 234 334" enableBackground="new 0 0 234 334" xml:space="preserve">
<path d="M115.1,7.3C54.9,7.3,6.2,56.1,6.2,116.2c0,4.8,0.9,10.7,2.2,16.7c3.7,17.4,10.4,34.1,19.6,49.3
	c24.9,41.5,87.2,144.2,87.2,144.2s61.2-101.1,85.1-140.6c9.1-15.1,16.1-31.3,20.4-48.4c1.9-7.5,3.3-15.1,3.3-21.3
	C224,56.1,175.2,7.3,115.1,7.3z M114.5,166.9c-28,0-50.7-22.7-50.7-50.7c0-28,22.7-50.7,50.7-50.7c28,0,50.7,22.7,50.7,50.7
	C165.2,144.2,142.5,166.9,114.5,166.9z"/>
</svg>
