<?xml version="1.0" encoding="utf-8"?>
<!-- Generator: Adobe Illustrator 26.5.0, SVG Export Plug-In . SVG Version: 6.00 Build 0)  -->
<svg version="1.1" id="Layer_1" xmlns="http://www.w3.org/2000/svg" xmlns:xlink="http://www.w3.org/1999/xlink" x="30px" y="30px"
	viewBox="0 0 144 109.2" enable-background="new 0 0 144 109.2" xml:space="preserve">
<g>
	<g>
		<path d="M132.9,22.8H10.6c-5.5,0-9.9-4.4-9.9-9.9c0-5.5,4.4-9.9,9.9-9.9h122.2c5.5,0,9.9,4.4,9.9,9.9
			C142.8,18.3,138.4,22.8,132.9,22.8z"/>
	</g>
	<g>
		<path d="M132.9,63.9H10.6c-5.5,0-9.9-4.4-9.9-9.9c0-5.5,4.4-9.9,9.9-9.9h122.2c5.5,0,9.9,4.4,9.9,9.9
			C142.8,59.4,138.4,63.9,132.9,63.9z"/>
	</g>
	<g>
		<path d="M132.9,105H10.6c-5.5,0-9.9-4.4-9.9-9.9c0-5.5,4.4-9.9,9.9-9.9h122.2c5.5,0,9.9,4.4,9.9,9.9
			C142.8,100.5,138.4,105,132.9,105z"/>
	</g>
</g>
</svg>
