<?xml version="1.0" encoding="utf-8"?>
<!-- Generator: Adobe Illustrator 26.3.1, SVG Export Plug-In . SVG Version: 6.00 Build 0)  -->
<svg version="1.1" id="_x31_" xmlns="http://www.w3.org/2000/svg" xmlns:xlink="http://www.w3.org/1999/xlink" x="0px" y="0px"
	 viewBox="0 0 204 232" enableBackground="new 0 0 204 232" xml:space="preserve" fill="#fff">
<g>
	<path fill="#fff" d="M171.4,83.1c-1.9,22-5.1,39.5-11.6,54.7c-9.4,22.3-27,40.9-57.3,62.1l-8.4,11.7l8.4,13.8l6.3-4.2
		c37.9-25.5,58.7-47.2,70.6-75.2c10.9-25.8,13.7-55.8,15.2-98.7L171.4,83.1z"/>
	<path fill="#fff" d="M144.3,25.5c-11.3-2.7-22.2-7.7-36.1-15.7l-5.7-3.3L97.4,21l5.1,10c13.5,7.5,24.8,12.4,36.8,15.2
		c5.3,1.3,10.6,2.1,16.3,2.6L102,131.4L72.4,88.2H46.6l46.9,68.4l9,13.1l8.7-13.4l84-129.5l-11.6,0.8
		C170.5,28.5,157.1,28.6,144.3,25.5z"/>
	<path fill="#fff" d="M21.4,27.6c16,1,28.1,0.6,39.3-2.1C72,22.8,83,17.8,96.8,9.8l5.7-3.3V31C89,38.5,77.7,43.4,65.7,46.2
		c-10.4,2.5-21.1,3.4-33.9,3.1c1.4,38.9,4,66.2,13.4,88.4c9.4,22.3,27,40.9,57.3,62.1v25.5l-6.3-4.2C58.3,195.7,37.5,174,25.6,146
		C14,118.5,11.6,86.1,10.2,38.5L9.8,26.9L21.4,27.6z"/>
</g>
</svg>
