<?xml version="1.0" encoding="utf-8"?>
<!-- Generator: Adobe Illustrator 26.3.1, SVG Export Plug-In . SVG Version: 6.00 Build 0)  -->
<svg version="1.1" id="Icon" xmlns="http://www.w3.org/2000/svg" xmlns:xlink="http://www.w3.org/1999/xlink" x="0px" y="0px"
	 viewBox="0 0 91.6 87.1" enable-background="new 0 0 91.6 87.1" xml:space="preserve" fill="#fff">
<g>
	<path d="M79.5,25.1h-1.3v-9.4c0-3.7-3-6.7-6.7-6.7h-4.2c-0.6-3.1-3.3-5.4-6.6-5.4H32.3c-1.6,0-3.2,0.7-4.4,1.8L15.4,17.9
		c-1.2,1.2-1.8,2.7-1.8,4.4v10.9h-1.3c-3.7,0-6.7,3-6.7,6.7v35c0,3.7,3,6.7,6.7,6.7h67.2c3.7,0,6.7-3,6.7-6.7v-43
		C86.2,28.1,83.2,25.1,79.5,25.1z M67.4,14.3h3.4c1.1,0,2,0.9,2,2v8.7h-5.4V14.3z M19,33.1V22.4h7.5c3.3,0,5.9-2.6,5.9-5.9V8.9H60
		c1.1,0,2,0.9,2,2v14.1H49.5c-2.2,0-4.3,1.1-5.6,3l-3.4,5.1H19z M60.7,73.5c-9.7,0-17.5-7.8-17.5-17.5S51,38.5,60.7,38.5
		S78.2,46.3,78.2,56S70.4,73.5,60.7,73.5z"/>
	<path d="M64.7,52v-6.7c0-1.5-1.2-2.7-2.7-2.7h-2.7c-1.5,0-2.7,1.2-2.7,2.7V52h-6.7c-1.5,0-2.7,1.2-2.7,2.7v2.7
		c0,1.5,1.2,2.7,2.7,2.7h6.7v6.7c0,1.5,1.2,2.7,2.7,2.7H62c1.5,0,2.7-1.2,2.7-2.7V60h6.7c1.5,0,2.7-1.2,2.7-2.7v-2.7
		c0-1.5-1.2-2.7-2.7-2.7H64.7z"/>
</g>
</svg>
