<?xml version="1.0" encoding="utf-8"?>
<!-- Generator: Adobe Illustrator 26.3.1, SVG Export Plug-In . SVG Version: 6.00 Build 0)  -->
<svg version="1.1" id="Isolation_Mode" xmlns="http://www.w3.org/2000/svg" xmlns:xlink="http://www.w3.org/1999/xlink" x="0px"
	 y="0px" viewBox="0 0 246.7 282.2" enable-background="new 0 0 246.7 282.2" xml:space="preserve">
<g>
	<path d="M225.3,85.5h-59.1c-2.7,0-4.8-2.2-4.8-4.8V21.6c0-2.1,1.7-3.4,3.4-3.4c0.8,0,1.7,0.3,2.4,1l60.5,60.5c0.7,0.7,1,1.6,1,2.4
		C228.7,83.9,227.4,85.5,225.3,85.5z"/>
	<path d="M166.2,99.9c-10.6,0-19.2-8.6-19.2-19.2V18.2H26.8c-5.3,0-9.6,4.3-9.6,9.6v226c0,5.3,4.3,9.6,9.6,9.6h192.3
		c5.3,0,9.6-4.3,9.6-9.6V99.9H166.2z M103.7,124h38.5c5.3,0,9.6,4.3,9.6,9.6c0,5.3-4.3,9.6-9.6,9.6h-38.5c-5.3,0-9.6-4.3-9.6-9.6
		C94.1,128.3,98.4,124,103.7,124z M175.8,220.1H70.1c-5.3,0-9.6-4.3-9.6-9.6c0-5.3,4.3-9.6,9.6-9.6h105.8c5.3,0,9.6,4.3,9.6,9.6
		C185.5,215.8,181.2,220.1,175.8,220.1z M175.8,181.7H70.1c-5.3,0-9.6-4.3-9.6-9.6c0-5.3,4.3-9.6,9.6-9.6h105.8
		c5.3,0,9.6,4.3,9.6,9.6C185.5,177.4,181.2,181.7,175.8,181.7z"/>
</g>
</svg>
