<?xml version="1.0" encoding="utf-8"?>
<!-- Generator: Adobe Illustrator 26.3.1, SVG Export Plug-In . SVG Version: 6.00 Build 0)  -->
<svg version="1.1" id="Icons" xmlns="http://www.w3.org/2000/svg" xmlns:xlink="http://www.w3.org/1999/xlink" x="0px" y="0px"
	 viewBox="0 0 87.2 71.2" enableBackground="new 0 0 87.2 71.2" xml:space="preserve" fill="#fff">
	<g>
		<path fill="#fff" d="M73.3,41.7c-3.7-2.6-17-8.3-17-8.3c-0.9-0.4-2-0.6-2.7-0.2L39,41l-5.8-10.6c4-1.1,8.6-2.4,9.8-3.6
			c2.3-2.1,7.6-9.5,7.6-9.5c0.9-1.1,0.5-2.6-0.7-3.7c-2-1.7-3.6-0.2-3.6-0.2l-9,8.1l-10.8,1.9c-1.7,0.3-3.1,0.3-5,2
			c-2.1,1.9-8.4,12.4-9.5,14.2c-0.7,1.2-0.5,2.2,0.3,3.6l7.5,12c0,0,1.3,2.6,4,1.1c0.8-0.4,2.4-1.8,1.5-3.9l-4.7-11.1l1.4-2.1
			c0,0,6,9.8,8.3,13.1c1.3,1.8,3.6,3.3,7.1,2.9c1.7,0,4.4-1.1,6.1-2.4c2.7-2.1,12.2-9.4,12.2-9.4l13.6,4.5c0,0,2.5,1.1,4.2-1.7
			C74.3,45,74.5,42.6,73.3,41.7z"/>
		<path fill="#fff" d="M64.4,66.3c2.5-2.6,0.8-4.4,0.8-4.4l-10-14.1l-7.6,5.8l12.5,13.4C60.1,67.1,62.2,68.6,64.4,66.3z"/>
		<path fill="#fff" d="M22.8,22.1c4.7,0,8.5-3.8,8.5-8.5c0-4.7-3.8-8.5-8.5-8.5c-4.7,0-8.5,3.8-8.5,8.5
			C14.3,18.3,18.1,22.1,22.8,22.1z"/>
		<path fill="#fff" d="M45.2,10.1c2-1.7,5.1-1.5,6.9,0.6c0.2,0.3,0.6,0.4,1,0.4c0.3,0,0.6-0.1,0.8-0.3c0.5-0.4,0.6-1.2,0.1-1.8
			C51.3,6,46.7,5.6,43.6,8.2C43,8.7,43,9.4,43.4,10C43.9,10.5,44.7,10.6,45.2,10.1z"/>
		<path fill="#fff" d="M8.5,48.4c0.2,0.1,0.4,0.2,0.6,0.2c0.4,0,0.8-0.2,1.1-0.6c0.3-0.6,0.1-1.4-0.4-1.7c-1-0.6-1.8-1.6-2.1-2.8
			c-0.3-1.2-0.1-2.4,0.5-3.4c0.3-0.6,0.1-1.4-0.4-1.7C7.1,38,6.3,38.2,6,38.8c-1,1.6-1.2,3.5-0.7,5.3C5.7,45.9,6.9,47.5,8.5,48.4z"/>
		<path fill="#fff" d="M73.1,35.5C73.1,35.5,73.1,35.5,73.1,35.5c-0.7,0-1.3,0.6-1.3,1.2c0,0.7,0.5,1.3,1.2,1.3
			c1.1,0,2.1,0.4,2.8,1.2C76.6,40,77,41,77,42c0,0.7,0.5,1.3,1.2,1.3c0,0,0,0,0,0c0.7,0,1.2-0.6,1.2-1.2c0-1.7-0.6-3.4-1.9-4.6
			C76.4,36.2,74.8,35.5,73.1,35.5z"/>
	</g>
</svg>
