<?xml version="1.0" encoding="utf-8"?>
<!-- Generator: Adobe Illustrator 26.3.1, SVG Export Plug-In . SVG Version: 6.00 Build 0)  -->
<svg version="1.1" id="Layer_1" xmlns="http://www.w3.org/2000/svg" xmlns:xlink="http://www.w3.org/1999/xlink" x="0px" y="0px"
	 viewBox="0 0 66.4 55.8" enableBackground="new 0 0 66.4 55.8" xml:space="preserve">
	<path fill="none" d="M42,4.6H13.1c-4,0-7.3,3.3-7.3,7.3v14.8c0,4,3.2,7.2,7.2,7.2h0.1h2v2v7.2l6.8-8.5l0.6-0.7h1h6v-7.3
		c0-3.6,2.9-6.5,6.5-6.5h13.4V12C49.3,7.9,46.1,4.6,42,4.6z"/>
	<g>
		<path d="M56.3,20.3h-5v6.4c0,5.1-4.2,9.3-9.3,9.3H29.5v1.1c0,3.6,2.9,6.5,6.5,6.5h13l7.3,9v-9h0.1c3.6,0,6.5-2.9,6.5-6.5V26.7
			C62.8,23.1,59.9,20.3,56.3,20.3z"/>
		<path d="M42,3.6H13.1c-4.6,0-8.3,3.7-8.3,8.3v14.8c0,4.5,3.7,8.2,8.3,8.2h1v11.1L23,35h19c4.6,0,8.3-3.7,8.3-8.3V12
			C50.3,7.4,46.6,3.6,42,3.6z M16.2,22.9c-1-0.2-1.9-1.1-2.1-2.1c-0.4-1.9,1.3-3.5,3.2-3.2c1,0.2,1.9,1.1,2.1,2.1
			C19.7,21.6,18.1,23.2,16.2,22.9z M27.1,22.9c-1-0.2-1.9-1.1-2.1-2.1c-0.4-1.9,1.3-3.5,3.2-3.2c1,0.2,1.9,1.1,2.1,2.1
			C30.6,21.6,28.9,23.2,27.1,22.9z M37.9,22.9c-1-0.2-1.9-1.1-2.1-2.1c-0.4-1.9,1.3-3.5,3.2-3.2c1,0.2,1.9,1.1,2.1,2.1
			C41.4,21.6,39.8,23.2,37.9,22.9z"/>
	</g>
</svg>
